<?xml version="1.0" standalone="no"?>
<!DOCTYPE svg PUBLIC "-//W3C//DTD SVG 20010904//EN"
 "http://www.w3.org/TR/2001/REC-SVG-20010904/DTD/svg10.dtd">
<svg version="1.0" xmlns="http://www.w3.org/2000/svg"
 width="768.000000pt" height="768.000000pt" viewBox="0 0 768.000000 768.000000"
 preserveAspectRatio="xMidYMid meet">
<metadata>
Created by potrace 1.14, written by Peter Selinger 2001-2017
</metadata>
<g transform="translate(0.000000,768.000000) scale(0.100000,-0.100000)"
fill="#000000" stroke="none">
<path d="M3485 6906 c-99 -19 -213 -52 -295 -86 -186 -77 -800 -413 -1019
-558 -128 -85 -182 -144 -237 -258 -45 -91 -52 -169 -30 -319 44 -309 61 -418
113 -747 31 -197 54 -361 50 -364 -7 -7 -35 11 -154 98 -39 29 -156 115 -260
190 -103 76 -269 197 -368 270 -99 72 -232 169 -295 215 -220 160 -266 193
-447 325 -411 301 -531 388 -537 388 -3 0 -6 -1363 -6 -3030 l0 -3030 3840 0
3840 0 0 234 0 234 -72 51 c-40 28 -121 86 -180 128 -58 43 -144 105 -190 139
-45 33 -220 161 -388 284 -168 123 -341 249 -385 281 -44 32 -154 112 -245
178 -91 67 -248 182 -350 256 -467 340 -423 303 -439 365 -12 44 -16 139 -16
495 -1 242 -2 448 -3 458 -3 30 -22 9 -53 -57 -32 -70 -38 -69 -10 1 35 91
181 558 181 581 0 25 -32 42 -79 42 -27 0 -29 -3 -44 -77 -9 -43 -21 -114 -27
-158 -12 -83 -56 -375 -66 -433 -3 -23 -2 -32 5 -27 6 3 2 -18 -10 -47 -12
-29 -77 -195 -144 -368 -67 -173 -131 -336 -142 -361 -18 -40 -48 -67 -249
-221 -126 -96 -255 -192 -288 -213 -57 -36 -282 -136 -381 -168 -129 -42 -345
-60 -428 -35 -23 7 -65 34 -96 63 -78 71 -100 85 -140 85 -27 0 -42 -9 -75
-44 -22 -24 -51 -57 -62 -72 l-22 -29 -118 29 c-66 16 -131 35 -146 42 -31 16
-144 157 -245 306 -76 113 -120 192 -153 281 -12 28 -27 66 -35 82 -12 23
-135 672 -135 709 0 4 10 5 23 2 35 -10 307 -35 450 -42 116 -5 136 -3 167 13
71 37 165 240 230 495 39 155 53 181 101 193 19 5 34 0 59 -21 37 -31 55 -70
112 -234 22 -63 59 -156 83 -207 56 -119 159 -269 198 -290 63 -32 174 -42
475 -43 166 0 324 5 365 11 137 21 218 80 267 193 27 63 73 247 104 416 23
128 26 136 59 165 34 30 35 31 41 136 9 153 1 160 -214 175 -86 6 -99 9 -72
16 40 11 40 20 1 50 -17 13 -52 41 -77 64 -26 23 -57 46 -69 53 -29 15 -93 14
-93 -1 0 -19 94 -104 152 -137 l53 -31 -50 1 c-27 1 -61 5 -75 9 l-25 8 25 1
c22 2 16 11 -60 81 -83 79 -85 80 -137 80 -28 0 -54 -4 -57 -9 -8 -12 32 -61
49 -61 7 0 25 -16 40 -36 37 -48 5 -32 -50 26 -51 54 -84 70 -137 70 -24 0
-140 -23 -258 -50 -118 -27 -262 -57 -320 -67 -117 -19 -150 -39 -150 -91 0
-38 -12 -47 -90 -67 -77 -20 -252 -17 -286 4 -11 8 -29 32 -40 55 -17 38 -23
42 -69 49 -99 16 -313 57 -430 82 -95 21 -135 25 -194 20 -83 -7 -100 -14
-153 -61 -42 -38 -115 -78 -121 -66 -2 4 -7 25 -11 47 -4 22 -9 53 -13 69 l-5
30 25 -30 c25 -28 26 -28 44 -11 15 15 19 41 23 176 4 137 8 162 24 180 21 23
114 61 149 61 12 0 63 9 112 20 126 28 463 98 505 105 19 3 76 15 125 26 67
14 223 27 615 50 289 16 707 41 930 54 l404 25 239 -106 c131 -59 240 -105
242 -103 2 2 -3 33 -12 69 -8 36 -39 189 -68 340 -30 151 -65 331 -80 399 -39
189 -255 830 -327 976 -37 73 -186 224 -272 274 -61 36 -317 136 -451 176 -95
28 -269 68 -421 96 -141 27 -464 35 -569 15z"/>
<path d="M5236 4685 c-11 -12 -16 -35 -16 -78 0 -34 -3 -78 -5 -97 -3 -19 -2
-41 3 -48 9 -13 435 -138 490 -144 25 -3 26 -1 24 42 -4 71 -13 135 -21 148
-6 11 -367 164 -439 186 -12 4 -26 1 -36 -9z"/>
<path d="M5215 4318 c8 -94 15 -113 47 -121 13 -3 121 -28 241 -56 120 -28
222 -51 228 -51 6 0 9 33 7 87 l-3 87 -95 34 c-143 51 -338 102 -388 102 l-45
0 8 -82z"/>
<path d="M5263 4123 c10 -62 36 -141 52 -157 8 -8 72 -33 142 -56 71 -24 154
-54 187 -67 32 -13 65 -22 72 -19 11 4 14 32 14 119 l0 114 -209 51 c-114 29
-221 52 -236 52 -26 0 -27 -2 -22 -37z"/>
<path d="M5217 3808 c2 -51 7 -99 9 -107 4 -14 33 -13 143 5 24 4 87 1 140 -6
113 -15 159 -3 185 49 15 27 15 30 -2 35 -9 3 -78 23 -152 45 -131 38 -274 71
-310 71 -16 0 -17 -9 -13 -92z"/>
<path d="M5689 3569 c-66 -63 -68 -81 -4 -55 21 9 48 16 61 16 l24 0 1 -137 1
-138 26 147 25 148 -27 40 c-14 22 -30 40 -35 40 -4 0 -37 -27 -72 -61z"/>
<path d="M5537 3320 c-39 -107 -37 -123 24 -179 43 -40 52 -54 56 -92 9 -76
-12 -127 -78 -192 -57 -57 -73 -87 -46 -87 8 0 53 29 100 65 l87 66 2 62 c5
132 0 155 -42 208 -42 54 -59 96 -69 173 l-6 51 -28 -75z"/>
<path d="M3305 2171 c-27 -10 -83 -34 -123 -54 -40 -19 -91 -38 -113 -42 -26
-4 -39 -12 -39 -22 0 -28 81 -9 201 48 108 51 118 53 194 53 44 0 141 -7 215
-17 150 -19 448 -34 475 -23 14 5 16 9 7 18 -7 7 -78 15 -189 19 -98 4 -235
15 -305 23 -167 21 -260 20 -323 -3z"/>
</g>
</svg>
